<?xml version="1.0" encoding="UTF-8" standalone="no"?>
<svg
   xmlns:dc="http://purl.org/dc/elements/1.1/"
   xmlns:cc="http://creativecommons.org/ns#"
   xmlns:rdf="http://www.w3.org/1999/02/22-rdf-syntax-ns#"
   xmlns:svg="http://www.w3.org/2000/svg"
   xmlns="http://www.w3.org/2000/svg"
   height="125.08634"
   width="125.08634"
   xml:space="preserve"
   viewBox="0 0 125.08634 125.08634"
   y="0px"
   x="0px"
   id="Layer_1"
   version="1.1"><metadata
     id="metadata23"><rdf:RDF><cc:Work
         rdf:about=""><dc:format>image/svg+xml</dc:format><dc:type
           rdf:resource="http://purl.org/dc/dcmitype/StillImage" /><dc:title></dc:title></cc:Work></rdf:RDF></metadata><defs
     id="defs21" /><style
     id="style2"
     type="text/css">
	.st0{fill:#FFFFFF;}
</style><g
     transform="translate(-74.75683,-73.15683)"
     id="Layer_1_1_" /><g
     transform="translate(-74.75683,-73.15683)"
     id="Layer_3" /><g
     transform="translate(-74.75683,-73.15683)"
     id="Layer_4" /><g
     style="fill:#d1cecc;fill-opacity:1"
     transform="translate(-74.75683,-73.15683)"
     id="g15"><rect
       x="128.5"
       y="127.3"
       transform="matrix(0.9482,-0.3176,0.3176,0.9482,-36.0197,50.6366)"
       class="st0"
       width="17.6"
       height="17"
       id="rect7"
       style="fill:#d1cecc;fill-opacity:1" /><g
       style="fill:#d1cecc;fill-opacity:1"
       id="g13"><rect
         x="128.5"
         y="127.3"
         transform="matrix(0.9482,-0.3176,0.3176,0.9482,-36.0197,50.6366)"
         class="st0"
         width="17.6"
         height="17"
         id="rect9"
         style="fill:#d1cecc;fill-opacity:1" /><path
         class="st0"
         d="m 194.6,118.5 c -12.9,-43 -31.5,-53 -74.5,-40.1 -43,12.9 -53,31.5 -40.1,74.5 12.9,43 31.5,53 74.5,40.1 43,-12.9 53,-31.5 40.1,-74.5 z m -21.7,27.9 -8.1,2.7 2.8,8.4 c 1.1,3.4 -0.7,7.1 -4.1,8.2 -0.7,0.2 -1.5,0.4 -2.2,0.3 -2.6,-0.1 -5.1,-1.8 -6,-4.4 l -2.8,-8.4 -16.7,5.6 2.8,8.4 c 1.1,3.4 -0.7,7.1 -4.1,8.2 -0.7,0.2 -1.5,0.4 -2.2,0.3 -2.6,-0.1 -5.1,-1.8 -6,-4.4 l -2.8,-8.4 -8.1,2.7 c -0.7,0.2 -1.5,0.4 -2.2,0.3 -2.6,-0.1 -5.1,-1.8 -6,-4.4 -1.1,-3.4 0.7,-7.1 4.1,-8.2 l 8.1,-2.7 -5.4,-16.1 -8.1,2.7 c -0.7,0.2 -1.5,0.4 -2.2,0.3 -2.6,-0.1 -5.1,-1.8 -6,-4.4 -1.1,-3.4 0.7,-7.1 4.1,-8.2 l 8.1,-2.7 -2.8,-8.4 c -1.1,-3.4 0.7,-7.1 4.1,-8.2 3.4,-1.1 7.1,0.7 8.2,4.1 l 2.8,8.4 16.7,-5.6 -2.8,-8.4 c -1.1,-3.4 0.7,-7.1 4.1,-8.2 3.4,-1.1 7.1,0.7 8.2,4.1 l 2.8,8.4 8.1,-2.7 c 3.4,-1.1 7.1,0.7 8.2,4.1 1.1,3.4 -0.7,7.1 -4.1,8.2 l -8.1,2.7 5.4,16.1 8.1,-2.7 c 3.4,-1.1 7.1,0.7 8.2,4.1 1.1,3.4 -0.7,7.1 -4.1,8.2 z"
         id="path11"
         style="fill:#d1cecc;fill-opacity:1" /></g></g></svg>