<?xml version="1.0" encoding="UTF-8" standalone="no"?>
<svg
   xmlns:dc="http://purl.org/dc/elements/1.1/"
   xmlns:cc="http://creativecommons.org/ns#"
   xmlns:rdf="http://www.w3.org/1999/02/22-rdf-syntax-ns#"
   xmlns:svg="http://www.w3.org/2000/svg"
   xmlns="http://www.w3.org/2000/svg"
   xml:space="preserve"
   enable-background="new 0 0 342.933 296.404"
   viewBox="0 0 342.933 296.404"
   height="296.404px"
   width="342.933px"
   y="0px"
   x="0px"
   id="Layer_1"
   version="1.1"><metadata
     id="metadata31"><rdf:RDF><cc:Work
         rdf:about=""><dc:format>image/svg+xml</dc:format><dc:type
           rdf:resource="http://purl.org/dc/dcmitype/StillImage" /><dc:title></dc:title></cc:Work></rdf:RDF></metadata><defs
     id="defs29" /><path
     id="path5185"
     d="m 204.34175,295.77537 c -0.86481,-0.22958 -1.80665,-1.0368 -2.20626,-1.89089 -0.33446,-0.71485 -0.39546,-3.91449 -0.47055,-24.68435 l -0.0863,-23.86303 0.68855,-1.17129 c 0.83584,-1.42185 1.75281,-2.01552 4.59938,-2.97772 7.12566,-2.40862 15.56359,-3.1298 20.45492,-1.74824 2.23317,0.63076 4.83204,1.94974 6.27449,3.18443 l 1.04131,0.89132 3.06202,-1.44858 c 1.68411,-0.79672 3.84148,-1.71369 4.79415,-2.03772 3.71376,-1.26313 8.06633,-1.67601 11.34933,-1.07659 5.28079,0.96418 11.07823,5.33371 13.42165,10.1159 1.96555,4.01108 1.88426,2.94754 1.88426,24.65294 0,18.88985 -0.0117,19.36154 -0.50238,20.19452 -0.75743,1.28593 -1.74252,1.91019 -3.01428,1.91019 -1.40022,0 -2.32875,-0.66545 -3.11355,-2.23137 l -0.60166,-1.20049 -0.0486,-18.88164 c -0.0485,-18.87068 -0.0489,-18.88247 -0.60819,-20.32235 -2.88119,-7.41731 -10.0406,-9.67832 -18.92915,-5.978 -1.02401,0.42629 -2.19105,1.11865 -2.59343,1.53857 l -0.73159,0.76348 -0.12559,22.0368 c -0.14192,24.90099 0.0335,22.96481 -2.1687,23.93894 -1.37349,0.60756 -2.31094,0.45234 -3.48296,-0.57671 -0.61268,-0.53794 -0.91521,-1.0816 -1.1117,-1.99782 -0.17912,-0.8352 -0.26996,-7.70309 -0.26996,-20.40966 0,-16.49764 -0.054,-19.3583 -0.38984,-20.648 -0.77324,-2.96941 -2.20367,-4.55826 -5.09996,-5.66473 -3.11189,-1.18884 -10.12221,-0.80769 -15.35895,0.83507 l -1.88393,0.59099 -0.12559,22.59632 -0.1256,22.59632 -0.5507,1.02918 c -0.30289,0.56606 -0.82329,1.20779 -1.15643,1.42607 -0.69339,0.45433 -2.07637,0.70403 -2.81428,0.50814 z"
     style="fill:#d1cecc;fill-opacity:1;fill-rule:nonzero;stroke:none;stroke-width:0.87247914;stroke-linejoin:bevel;stroke-miterlimit:4;stroke-dasharray:none" /><path
     id="path5181"
     d="m 104.61939,295.69305 c -6.897834,-1.06506 -12.599645,-4.81663 -15.074147,-9.9182 -1.219734,-2.51467 -1.592211,-4.3967 -1.913216,-9.667 -0.321596,-5.28 -0.140977,-19.29432 0.281652,-21.85351 1.234415,-7.47488 6.141239,-12.78975 13.722031,-14.86315 2.84399,-0.77785 8.63817,-0.77756 11.52413,5.7e-4 7.26276,1.95824 12.23017,7.21771 13.72442,14.53135 0.4258,2.08412 0.49137,3.22842 0.42305,7.38375 -0.0803,4.8835 -0.0856,4.92459 -0.77189,5.9608 -0.38008,0.57386 -1.17133,1.29995 -1.75833,1.61353 l -1.06728,0.57013 -14.53672,0.0707 -14.536725,0.0707 0.120268,4.57636 c 0.105651,4.02019 0.19764,4.81276 0.756919,6.52156 1.524038,4.65648 4.695638,7.46293 9.314388,8.24198 3.38244,0.57052 6.47149,0.0605 13.31472,-2.19856 3.16688,-1.04541 3.56094,-1.1218 4.43532,-0.85983 0.53248,0.15953 1.30546,0.68137 1.73651,1.17232 0.65042,0.74078 0.77687,1.09261 0.77687,2.16156 0,1.14161 -0.0997,1.37577 -0.94197,2.21215 -1.12485,1.11701 -4.92798,2.68319 -8.89354,3.66249 -2.92173,0.72152 -8.02138,1.01418 -10.63646,0.61039 z m 15.39242,-36.47099 c 0.10975,-5.41679 -0.74318,-8.08113 -3.34955,-10.4632 -3.0585,-2.7953 -7.87087,-4.11239 -11.96771,-3.27541 -2.08186,0.42532 -5.206692,2.07432 -6.648238,3.50832 -2.515773,2.50262 -3.337286,5.03437 -3.344562,10.3073 -0.0024,1.73844 0.07204,3.2372 0.165417,3.33058 0.09338,0.0934 5.773413,0.14048 12.622293,0.10467 l 12.45251,-0.0651 z"
     style="fill:#d1cecc;fill-opacity:1;fill-rule:nonzero;stroke:none;stroke-width:0.87247914;stroke-linejoin:bevel;stroke-miterlimit:4;stroke-dasharray:none" /><path
     id="path5183"
     d="m 160.01078,295.56645 c -3.97261,-0.71863 -8.36527,-2.69796 -10.83679,-4.88305 -1.84019,-1.62692 -3.58976,-4.21314 -4.37217,-6.46294 -0.89874,-2.58434 -1.20833,-6.94763 -1.22614,-17.28103 -0.0256,-14.88087 0.71128,-18.05439 5.25501,-22.63049 1.65231,-1.66408 2.4505,-2.2456 4.39939,-3.20516 2.97899,-1.46674 5.65175,-2.15892 9.03737,-2.34045 9.9541,-0.53372 17.96565,5.01272 20.38035,14.10947 0.46062,1.73525 0.53756,2.76375 0.56371,7.53569 0.0299,5.46212 0.023,5.53924 -0.60084,6.65337 -0.4154,0.7419 -1.01644,1.34293 -1.75833,1.75833 l -1.1272,0.63113 -14.34458,0.0724 -14.34458,0.0724 -0.17,3.31864 c -0.40831,7.97064 1.54277,12.43789 6.50327,14.89008 3.80998,1.88345 7.72247,1.7753 14.56901,-0.4027 6.04504,-1.92304 5.92772,-1.9007 7.06218,-1.34487 1.7903,0.87717 2.60311,3.00303 1.81203,4.73925 -0.61463,1.34896 -7.32834,4.0063 -12.06102,4.77385 -2.82335,0.45789 -6.1959,0.45636 -8.74067,-0.004 z m 16.06775,-36.22552 c -0.005,-3.80971 -0.42824,-6.0468 -1.53682,-8.12671 -2.35452,-4.41754 -8.8177,-6.98223 -14.16821,-5.62215 -2.289,0.58185 -5.09649,2.06454 -6.42523,3.39327 -2.35471,2.35472 -3.22409,5.14097 -3.23119,10.35559 l -0.004,3.20267 h 12.68508 12.68509 l -0.004,-3.20267 z"
     style="fill:#d1cecc;fill-opacity:1;fill-rule:nonzero;stroke:none;stroke-width:0.87247914;stroke-linejoin:bevel;stroke-miterlimit:4;stroke-dasharray:none" /><path
     id="path5177"
     d="m 13.563075,295.79126 c -0.345386,-0.0507 -1.47574,-0.21697 -2.511898,-0.36948 -1.036158,-0.15251 -3.0268738,-0.65097 -4.4238128,-1.10769 -4.8866202,-1.59765 -6.37867976,-2.73258 -6.37569475,-4.84965 0.001781,-1.2639 0.52723945,-2.30041 1.51797105,-2.99435 0.9021431,-0.63188 2.622186,-0.48992 4.8165585,0.39753 3.81829,1.54419 8.796007,2.48832 11.498293,2.1809 6.059494,-0.68936 9.012201,-3.77629 8.740441,-9.13775 -0.127135,-2.50818 -0.656191,-3.7735 -2.207092,-5.2786 -1.303021,-1.26454 -2.830332,-2.05133 -9.547624,-4.91846 -3.107161,-1.32622 -6.4799113,-2.8865 -7.4949998,-3.46729 -4.7631478,-2.72526 -7.31657774,-6.87058 -7.38686848,-11.99208 -0.0812074,-5.9169 2.96680648,-10.80078 8.35092978,-13.38081 3.3898305,-1.62439 5.2328835,-2.03415 9.1684285,-2.03841 5.61395,-0.006 12.925676,1.78527 14.755435,3.61503 0.821454,0.82145 0.943929,1.09604 0.943929,2.1163 0,2.16003 -1.173222,3.40814 -3.20364,3.40814 -0.532331,0 -2.141684,-0.39529 -3.576338,-0.87844 -6.019456,-2.02715 -11.070435,-2.1935 -14.803969,-0.48758 -2.8609476,1.30723 -4.2819237,3.47325 -4.2861509,6.53347 -0.00332,2.40149 0.5466774,3.8832 1.9923065,5.36737 1.4344174,1.47267 1.9213244,1.72781 8.2342674,4.31481 9.906308,4.05955 12.396084,5.69781 14.619838,9.61979 1.68167,2.96592 2.31385,7.35115 1.542114,10.69716 -1.201928,5.21118 -5.423718,9.79551 -10.662038,11.57762 -2.810071,0.95601 -7.19277,1.44056 -9.700386,1.07247 z"
     style="fill:#d1cecc;fill-opacity:1;fill-rule:nonzero;stroke:none;stroke-width:0.87247914;stroke-linejoin:bevel;stroke-miterlimit:4;stroke-dasharray:none" /><path
     id="path5191"
     d="m 329.73626,295.33755 c -4.11141,-1.15736 -7.29048,-3.87293 -9.00399,-7.69125 -1.4876,-3.31492 -1.42039,-1.59004 -1.42039,-36.45059 0,-31.99966 0.001,-32.07259 0.5179,-32.76475 0.8808,-1.17978 1.76228,-1.68774 2.92635,-1.68634 1.54198,0.002 2.65675,0.6653 3.22651,1.92022 0.44271,0.9751 0.47752,1.76998 0.48264,11.02093 l 0.006,9.97003 6.84493,0.0776 c 6.31405,0.0716 6.9109,0.11653 7.69567,0.57994 1.78406,1.05351 2.32742,3.46353 1.1077,4.91309 -1.18878,1.41278 -1.65897,1.49225 -8.82881,1.49225 h -6.5097 l -0.15147,0.56518 c -0.28289,1.05562 -0.17574,33.9125 0.11574,35.48926 0.33781,1.82737 0.9341,3.01706 2.02744,4.04502 1.73848,1.63453 2.13779,1.72997 6.96038,1.66361 3.54241,-0.0487 4.52061,0.0144 5.19748,0.33563 2.27997,1.08192 2.42258,4.6671 0.23525,5.9144 -1.5865,0.90469 -8.97597,1.29637 -11.42914,0.60581 z"
     style="fill:#d1cecc;fill-opacity:1;fill-rule:nonzero;stroke:none;stroke-width:0.87247914;stroke-linejoin:bevel;stroke-miterlimit:4;stroke-dasharray:none" /><path
     id="path5179"
     d="m 63.04747,295.83539 c -4.430996,-1.1291 -8.275551,-4.14935 -10.16219,-7.98333 -1.701128,-3.45699 -1.635132,-1.97307 -1.633853,-36.73759 0.0011,-30.30707 0.01774,-31.43527 0.478279,-32.44963 0.569751,-1.25492 1.684524,-1.91836 3.226509,-1.92022 1.163862,-0.001 2.045193,0.50636 2.926343,1.68595 0.500288,0.66973 0.520394,1.04222 0.591224,10.95316 l 0.07332,10.25985 6.879225,0.0837 c 6.485538,0.0789 6.918897,0.11331 7.572446,0.60157 1.186101,0.88613 1.646398,1.70829 1.665546,2.9749 0.02101,1.38936 -0.554156,2.32015 -1.838304,2.97495 -0.754899,0.38493 -1.672608,0.43924 -7.428167,0.43959 -5.756163,2.5e-4 -6.585682,0.0494 -6.719328,0.39771 -0.08386,0.21853 -0.15247,8.28005 -0.15247,17.91449 0,19.1407 -0.01041,18.99092 1.461235,21.02108 0.39194,0.54069 1.325596,1.32218 2.074792,1.73664 l 1.362175,0.75357 h 4.704041 4.704041 l 0.776614,0.77568 c 1.462125,1.46036 1.417874,3.69703 -0.09918,5.01305 -0.484979,0.42071 -1.539677,0.97898 -2.343775,1.2406 -1.892478,0.61575 -6.19026,0.75566 -8.118526,0.26431 z"
     style="fill:#d1cecc;fill-opacity:1;fill-rule:nonzero;stroke:none;stroke-width:0.87247914;stroke-linejoin:bevel;stroke-miterlimit:4;stroke-dasharray:none" /><path
     id="path5187"
     d="m 293.26294,295.71233 c -1.26202,-0.29412 -1.85922,-0.73683 -2.38548,-1.76839 -0.49383,-0.96799 -0.5031,-1.46252 -0.49768,-26.55492 0.005,-24.54998 0.0245,-25.61033 0.48133,-26.61655 0.55865,-1.23043 1.37874,-1.83552 2.73407,-2.01731 1.30535,-0.17508 2.64184,0.47859 3.36885,1.64768 l 0.56914,0.91522 v 26.04253 c 0,25.91092 -0.003,26.04603 -0.5179,26.73619 -1.04178,1.39536 -2.32554,1.94808 -3.75233,1.61555 z"
     style="fill:#d1cecc;fill-opacity:1;fill-rule:nonzero;stroke:none;stroke-width:0.87247914;stroke-linejoin:bevel;stroke-miterlimit:4;stroke-dasharray:none" /><path
     id="path5189"
     d="m 292.00232,226.02222 c -1.49246,-0.65031 -2.87758,-2.82174 -2.88261,-4.51901 -0.003,-1.07168 0.67047,-2.58493 1.53601,-3.45048 2.17149,-2.17149 5.99532,-1.59813 7.52792,1.12877 0.99827,1.77617 0.54403,4.66676 -0.93773,5.96733 -1.3586,1.19247 -3.63941,1.57237 -5.24359,0.87339 z"
     style="fill:#d1cecc;fill-opacity:1;fill-rule:nonzero;stroke:none;stroke-width:0.87247914;stroke-linejoin:bevel;stroke-miterlimit:4;stroke-dasharray:none" /><path
     id="path5173"
     d="m 170.36398,177.28978 c 0.001,-0.13816 1.3864,-5.67689 3.07759,-12.3083 3.64233,-14.28212 3.94266,-22.68668 1.09507,-30.64516 -1.08751,-3.0394 -7.72086,-17.734 -14.74076,-32.65468 -18.59887,-39.531524 -22.59166,-50.367018 -22.59166,-61.308365 0,-5.219177 0.57614,-7.421734 3.26546,-12.483562 3.871,-7.285973 9.98691,-14.661294 18.16981,-21.9113952 8.22391,-7.2864319 9.03143,-7.0839653 8.01477,2.0095186 -1.41158,12.6259526 -0.89469,23.7185926 1.46405,31.4191676 1.18835,3.879566 6.06564,15.183108 10.83843,25.118982 21.00516,43.728004 26.57111,58.074764 26.57111,68.489554 0,5.05249 -0.54711,6.86971 -3.59169,11.92986 -1.97543,3.28319 -5.39314,8.30646 -7.59491,11.16281 -5.3495,6.93988 -20.52974,21.43276 -22.44927,21.43276 -0.84189,0 -1.52949,-0.11304 -1.528,-0.25119 z"
     style="fill:#d1cecc;fill-opacity:1;fill-rule:nonzero;stroke:none;stroke-width:3.48991656;stroke-linejoin:bevel;stroke-miterlimit:4;stroke-dasharray:none" /><path
     id="path5171"
     d="m 114.09475,157.97605 c 0,-0.26096 1.12623,-4.89542 2.50273,-10.29878 4.19814,-16.47948 4.14226,-16.73799 -10.26756,-47.50277 C 88.988722,63.151293 85.839865,52.907484 88.926006,43.556384 91.050887,37.11793 102.6967,23.66979 109.83263,19.414217 c 1.00023,-0.5965 1.1302,1.618713 0.6227,10.614018 -0.8507,15.078839 0.11141,18.493169 12.69662,45.057609 12.8211,27.062346 14.78597,31.745486 17.07609,40.699746 2.26298,8.84816 1.67237,12.14002 -3.62241,20.19016 -5.89368,8.96069 -22.51088,25.20099 -22.51088,22.0003 z"
     style="fill:#d1cecc;fill-opacity:1;fill-rule:nonzero;stroke:none;stroke-width:3.48991656;stroke-linejoin:bevel;stroke-miterlimit:4;stroke-dasharray:none" /><path
     id="path5175"
     d="m 228.01785,156.69221 c 2.44584,-8.25903 4.6385,-18.95386 4.6385,-22.62455 0,-5.99897 -0.68827,-7.81658 -12.83418,-33.89316 -13.93542,-29.918558 -17.45954,-39.14033 -18.06461,-47.270685 -0.42785,-5.74896 -0.14036,-7.26844 2.28125,-12.057111 2.76532,-5.468356 17.20543,-21.052946 19.50689,-21.052946 0.87323,0 1.0032,2.811604 0.49932,10.801162 -0.9159,14.522478 0.26954,18.685637 12.75449,44.792785 11.21731,23.456396 16.09511,35.400955 18.00821,44.097745 1.23674,5.62215 1.1935,5.89021 -1.99509,12.36715 -2.30614,4.68443 -6.09712,9.54393 -12.96371,16.61761 -9.25274,9.5318 -12.9876,12.12734 -11.83107,8.222 z"
     style="fill:#d1cecc;fill-opacity:1;fill-rule:nonzero;stroke:none;stroke-width:3.48991656;stroke-linejoin:bevel;stroke-miterlimit:4;stroke-dasharray:none" /></svg>