<?xml version="1.0" encoding="UTF-8" standalone="no"?>
<svg
   xmlns:dc="http://purl.org/dc/elements/1.1/"
   xmlns:cc="http://creativecommons.org/ns#"
   xmlns:rdf="http://www.w3.org/1999/02/22-rdf-syntax-ns#"
   xmlns:svg="http://www.w3.org/2000/svg"
   xmlns="http://www.w3.org/2000/svg"
   xmlns:sodipodi="http://sodipodi.sourceforge.net/DTD/sodipodi-0.dtd"
   xmlns:inkscape="http://www.inkscape.org/namespaces/inkscape"
   version="1.1"
   id="Layer_1"
   x="0px"
   y="0px"
   width="100.183"
   height="85.242142"
   viewBox="62.402 -18.766 100.183 85.242145"
   enable-background="new 62.402 -18.766 435.721 85.242"
   xml:space="preserve"
   sodipodi:docname="icon-rocket.svg"
   inkscape:version="0.92.2 (unknown)"><sodipodi:namedview
     pagecolor="#ffffff"
     bordercolor="#666666"
     borderopacity="1"
     objecttolerance="10"
     gridtolerance="10"
     guidetolerance="10"
     inkscape:pageopacity="0"
     inkscape:pageshadow="2"
     inkscape:window-width="640"
     inkscape:window-height="480"
     id="namedview22"
     showgrid="false"
     inkscape:zoom="3.4607296"
     inkscape:cx="1.9802566"
     inkscape:cy="42.621071"
     inkscape:current-layer="Layer_1" /><metadata
     id="metadata53"><rdf:RDF><cc:Work
         rdf:about=""><dc:format>image/svg+xml</dc:format><dc:type
           rdf:resource="http://purl.org/dc/dcmitype/StillImage" /><dc:title /></cc:Work></rdf:RDF></metadata><defs
     id="defs51" /><path
     style="fill:#d1cecc;fill-opacity:1;fill-rule:nonzero;stroke:none;stroke-width:1.0036571;stroke-linejoin:bevel;stroke-miterlimit:4;stroke-dasharray:none"
     d="M 9.1752713,84.694621 C 6.6281396,84.243985 1.5331124,82.703145 0.83035981,82.170951 0.44792207,81.88133 0.76252981,81.415446 3.009331,78.94425 c 3.1437602,-3.457736 4.7539794,-5.666178 6.1108297,-8.381094 1.2422513,-2.485618 1.6856503,-4.085922 1.6856503,-6.083804 0,-1.840907 -0.02797,-1.896152 -2.6251592,-5.185496 C 5.675561,56.121158 3.4650568,51.765316 2.6816625,48.45799 1.9786813,45.490151 1.9050743,40.837175 2.5110077,37.670245 3.2519079,33.797911 5.34046,29.390101 7.9379842,26.216819 c 2.4330288,-2.972325 2.8265478,-3.738641 2.8265478,-5.504258 0,-4.129982 -2.2228606,-8.28635 -7.5035937,-14.0304359 C 1.8163455,5.1107778 0.67197096,3.6276308 0.71788379,3.3862426 0.8263311,2.8160782 4.5296439,1.5208014 8.1757167,0.77777906 10.103433,0.38493563 12.142729,0.20226949 14.600744,0.20226949 c 8.886948,0 15.832889,2.60808181 23.036734,8.64990041 l 1.011347,0.8482107 3.467477,-0.441274 C 46.58382,8.690567 58.378954,8.8742987 62.487729,9.5764307 c 8.626098,1.4740793 16.964559,4.6735943 23.260992,8.9253733 3.29221,2.223124 8.020283,6.89802 9.901158,9.789798 2.755361,4.236268 4.077273,8.245864 4.314601,13.086956 0.5655,11.53536 -6.474314,21.79815 -19.483666,28.403693 -7.203481,3.657593 -14.004509,5.55369 -23.135625,6.450114 -3.850367,0.378001 -12.878021,0.192881 -16.291761,-0.334077 l -2.2187,-0.342485 -3.029164,2.274407 c -3.642079,2.734606 -6.665448,4.388286 -10.167715,5.561388 -5.062404,1.69568 -11.4054,2.197731 -16.4625777,1.303023 z M 20.750856,73.725024 c 4.854906,-1.264543 9.310251,-3.748591 14.376117,-8.015307 l 1.302471,-1.097003 2.698951,0.513464 c 3.957538,0.752911 19.933224,0.750562 23.937247,-0.0035 12.044573,-2.268354 21.614298,-6.909962 26.150556,-12.683811 0.635704,-0.809136 1.502735,-1.840127 1.926738,-2.291087 1.356939,-1.443213 1.822428,-3.40017 1.810947,-7.613383 -0.0093,-3.399374 -0.08562,-3.948397 -0.803281,-5.77561 C 88.421697,27.264749 77.857182,19.86691 64.094174,17.112191 50.943551,14.480042 36.77611,15.933253 26.148783,21.004399 c -8.055305,3.843829 -13.569668,9.084407 -16.074826,15.276723 -0.8567807,2.11781 -0.8930409,2.378781 -0.8889276,6.39774 0.00397,3.878194 0.06288,4.337525 0.7919324,6.174825 1.2464892,3.141303 2.7207352,5.31123 5.7188202,8.417474 l 2.788951,2.889564 -0.226328,3.496014 c -0.252352,3.897988 -1.118042,7.022303 -2.625829,9.476739 l -0.868941,1.414497 2.168161,-0.196473 c 1.192488,-0.108061 2.911065,-0.389976 3.81906,-0.626478 z"
     id="path1455"
     inkscape:connector-curvature="0"
     transform="translate(62.402,-18.766)" /><path
     style="fill:#d1cecc;fill-opacity:1;fill-rule:nonzero;stroke:none;stroke-width:1.0036571;stroke-linejoin:bevel;stroke-miterlimit:4;stroke-dasharray:none"
     d="m 29.40222,48.556569 c -3.794384,-1.996822 -4.444589,-6.230844 -1.399006,-9.110084 2.001908,-1.892568 5.130451,-1.892568 7.132359,0 2.343299,2.215313 2.572304,5.508375 0.533066,7.665426 -1.710184,1.808987 -4.397064,2.428419 -6.266419,1.444658 z"
     id="path1457"
     inkscape:connector-curvature="0"
     transform="translate(62.402,-18.766)" /><path
     style="fill:#d1cecc;fill-opacity:1;fill-rule:nonzero;stroke:none;stroke-width:1.0036571;stroke-linejoin:bevel;stroke-miterlimit:4;stroke-dasharray:none"
     d="m 48.687007,48.558318 c -1.326986,-0.654118 -2.587006,-2.190489 -2.982192,-3.63625 -0.654153,-2.393175 0.72316,-5.268874 3.02394,-6.313701 4.961221,-2.252982 9.77401,3.273219 6.856793,7.873193 -1.436018,2.264364 -4.591098,3.21418 -6.898541,2.076758 z"
     id="path1459"
     inkscape:connector-curvature="0"
     transform="translate(62.402,-18.766)" /><path
     style="fill:#d1cecc;fill-opacity:1;fill-rule:nonzero;stroke:none;stroke-width:1.0036571;stroke-linejoin:bevel;stroke-miterlimit:4;stroke-dasharray:none"
     d="m 67.765154,48.296768 c -2.313712,-1.386736 -3.420036,-4.801883 -2.269179,-7.004798 1.618801,-3.098632 5.680467,-4.181674 8.191658,-2.184304 1.311725,1.043329 2.383305,3.04103 2.374702,4.427053 -0.02547,4.103199 -4.81247,6.850629 -8.297181,4.762049 z"
     id="path1461"
     inkscape:connector-curvature="0"
     transform="translate(62.402,-18.766)" /><g
     id="g24"
     transform="translate(13646.488,45.768306)"><path
       d="m 205.456,22.207 c 0,4.297 -1.603,7.119 -4.681,8.465 l 4.425,16.803 c 0.192,0.771 -0.192,1.154 -0.898,1.154 h -6.67 c -0.641,0 -0.961,-0.32 -1.09,-0.898 l -4.297,-16.289 h -4.425 v 16.162 c 0,0.642 -0.384,1.025 -1.026,1.025 h -6.67 c -0.641,0 -1.026,-0.385 -1.026,-1.025 V -1.651 c 0,-0.641 0.385,-1.026 1.026,-1.026 h 16.097 c 6.028,0 9.235,3.207 9.235,9.235 z m -11.287,0.769 c 1.667,0 2.565,-0.898 2.565,-2.565 V 8.354 c 0,-1.667 -0.898,-2.564 -2.565,-2.564 h -6.349 v 17.187 z"
       id="path2"
       style="fill:#f4f4f4" /><path
       d="m 210.583,6.558 c 0,-6.028 3.206,-9.235 9.235,-9.235 h 7.183 c 6.028,0 9.235,3.207 9.235,9.235 v 32.836 c 0,6.027 -3.207,9.234 -9.235,9.234 h -7.183 c -6.029,0 -9.235,-3.207 -9.235,-9.234 z m 14.814,33.797 c 1.667,0 2.565,-0.834 2.565,-2.565 V 8.162 c 0,-1.667 -0.898,-2.565 -2.565,-2.565 h -3.719 c -1.667,0 -2.565,0.898 -2.565,2.565 v 29.629 c 0,1.73 0.898,2.564 2.565,2.564 z"
       id="path4"
       style="fill:#f4f4f4" /><path
       d="m 268.362,13.484 c 0,0.642 -0.385,1.026 -1.025,1.026 h -6.413 c -0.706,0 -1.026,-0.384 -1.026,-1.026 v -5.13 c 0,-1.667 -0.897,-2.564 -2.564,-2.564 h -3.335 c -1.731,0 -2.565,0.897 -2.565,2.564 V 37.6 c 0,1.731 0.897,2.563 2.565,2.563 h 3.335 c 1.667,0 2.564,-0.833 2.564,-2.563 v -5.132 c 0,-0.642 0.32,-1.026 1.026,-1.026 h 6.413 c 0.643,0 1.025,0.384 1.025,1.026 v 6.927 c 0,6.027 -3.271,9.234 -9.234,9.234 h -7.183 c -6.028,0 -9.299,-3.207 -9.299,-9.234 V 6.558 c 0,-6.028 3.271,-9.235 9.299,-9.235 h 7.183 c 5.964,0 9.234,3.207 9.234,9.235 z"
       id="path6"
       style="fill:#f4f4f4" /><path
       d="m 295.422,48.629 c -0.771,0 -1.218,-0.32 -1.476,-0.961 l -8.079,-19.048 -2.374,4.554 v 14.172 c 0,0.834 -0.448,1.283 -1.282,1.283 h -6.157 c -0.834,0 -1.283,-0.449 -1.283,-1.283 v -48.74 c 0,-0.833 0.449,-1.283 1.283,-1.283 h 6.157 c 0.833,0 1.282,0.449 1.282,1.283 v 19.881 l 9.876,-20.202 c 0.321,-0.641 0.771,-0.962 1.476,-0.962 h 6.733 c 0.962,0 1.347,0.642 0.897,1.539 l -10.901,22.382 11.606,25.91 c 0.449,0.834 0.064,1.475 -0.961,1.475 z"
       id="path8"
       style="fill:#f4f4f4" /><path
       d="m 333.45,4.763 c 0,0.641 -0.257,1.09 -1.026,1.09 h -16.033 v 12.826 h 12.249 c 0.643,0 1.026,0.385 1.026,1.09 v 6.349 c 0,0.706 -0.385,1.091 -1.026,1.091 h -12.249 v 12.954 h 16.033 c 0.771,0 1.026,0.321 1.026,1.026 v 6.414 c 0,0.641 -0.257,1.024 -1.026,1.024 h -23.6 c -0.578,0 -0.963,-0.385 -0.963,-1.024 V -1.651 c 0,-0.641 0.385,-1.026 0.963,-1.026 h 23.6 c 0.771,0 1.026,0.385 1.026,1.026 z"
       id="path10"
       style="fill:#f4f4f4" /><path
       d="m 363.204,-2.677 c 0.705,0 1.026,0.385 1.026,1.026 v 6.414 c 0,0.641 -0.321,1.026 -1.026,1.026 h -7.439 v 41.814 c 0,0.705 -0.32,1.024 -1.025,1.024 h -6.67 c -0.643,0 -1.026,-0.319 -1.026,-1.024 V 5.789 h -7.438 c -0.643,0 -1.026,-0.385 -1.026,-1.026 v -6.414 c 0,-0.641 0.385,-1.026 1.026,-1.026 z"
       id="path12"
       style="fill:#f4f4f4" /><path
       d="m 363.585,41.445 c 0,-0.834 0.449,-1.282 1.283,-1.282 h 5.836 c 0.834,0 1.282,0.448 1.282,1.282 v 5.899 c 0,0.835 -0.448,1.283 -1.282,1.283 h -5.836 c -0.834,0 -1.283,-0.448 -1.283,-1.283 z"
       id="path14"
       style="fill:#f4f4f4" /><path
       d="m 404.114,13.484 c 0,0.642 -0.386,1.026 -1.026,1.026 h -6.413 c -0.705,0 -1.025,-0.384 -1.025,-1.026 v -5.13 c 0,-1.667 -0.897,-2.564 -2.564,-2.564 h -3.335 c -1.732,0 -2.565,0.897 -2.565,2.564 V 37.6 c 0,1.731 0.897,2.563 2.565,2.563 h 3.335 c 1.667,0 2.564,-0.833 2.564,-2.563 v -5.132 c 0,-0.642 0.32,-1.026 1.025,-1.026 h 6.413 c 0.643,0 1.026,0.384 1.026,1.026 v 6.927 c 0,6.027 -3.271,9.234 -9.235,9.234 h -7.183 c -6.028,0 -9.299,-3.207 -9.299,-9.234 V 6.558 c 0,-6.028 3.271,-9.235 9.299,-9.235 h 7.183 c 5.965,0 9.235,3.207 9.235,9.235 z"
       id="path16"
       style="fill:#f4f4f4" /><path
       d="m 427.455,-1.651 c 0,-0.641 0.384,-1.026 1.025,-1.026 h 6.605 c 0.77,0 1.089,0.385 1.089,1.026 v 49.254 c 0,0.641 -0.32,1.024 -1.089,1.024 h -6.605 c -0.643,0 -1.025,-0.385 -1.025,-1.024 V 27.209 h -8.209 v 20.395 c 0,0.642 -0.385,1.025 -1.026,1.025 h -6.604 c -0.771,0 -1.091,-0.385 -1.091,-1.025 V -1.651 c 0,-0.641 0.32,-1.026 1.091,-1.026 h 6.604 c 0.643,0 1.026,0.385 1.026,1.026 v 20.394 h 8.209 z"
       id="path18"
       style="fill:#f4f4f4" /><path
       d="m 465.419,48.629 c -0.577,0 -0.897,-0.32 -1.026,-0.898 l -1.795,-9.362 h -11.416 l -1.73,9.362 c -0.129,0.578 -0.449,0.898 -1.026,0.898 h -6.861 c -0.705,0 -1.026,-0.385 -0.835,-1.09 l 10.646,-49.318 c 0.129,-0.641 0.513,-0.898 1.09,-0.898 h 8.915 c 0.577,0 0.962,0.257 1.09,0.898 l 10.646,49.318 c 0.129,0.705 -0.128,1.09 -0.897,1.09 z m -8.53,-40.083 -4.104,22.382 h 8.209 z"
       id="path20"
       style="fill:#f4f4f4" /><path
       d="m 497.097,-2.677 c 0.705,0 1.026,0.385 1.026,1.026 v 6.414 c 0,0.641 -0.321,1.026 -1.026,1.026 h -7.438 v 41.814 c 0,0.705 -0.321,1.024 -1.026,1.024 h -6.67 c -0.641,0 -1.025,-0.319 -1.025,-1.024 V 5.789 H 473.5 c -0.642,0 -1.025,-0.385 -1.025,-1.026 v -6.414 c 0,-0.641 0.385,-1.026 1.025,-1.026 z"
       id="path22"
       style="fill:#f4f4f4" /></g></svg>