<?xml version="1.0" encoding="UTF-8"?>
<svg width="920.0836" height="922.80441" xmlns="http://www.w3.org/2000/svg" xmlns:svg="http://www.w3.org/2000/svg" xmlns:xlink="http://www.w3.org/1999/xlink">
 <defs>
  <path fill="none" id="path4694-3" d="m150.259995,788.392029c0,0 119.800003,194.929993 351.279984,194.929993c231.480042,0 357.369995,-209.140015 357.369995,-209.140015"/>
  <linearGradient id="linearGradient4586">
   <stop stop-color="#8c5800" id="stop4588" offset="0"/>
   <stop stop-color="#b18100" id="stop4590" offset="1"/>
  </linearGradient>
  <linearGradient id="linearGradient4303">
   <stop stop-color="#959595" id="stop4305" offset="0"/>
   <stop stop-color="#e6e6e6" id="stop4309" offset="0.34092"/>
   <stop stop-color="#f7f7f7" id="stop4307" offset="1"/>
  </linearGradient>
  <linearGradient id="linearGradient4265">
   <stop stop-color="#000000" id="stop4267" offset="0"/>
   <stop stop-color="#000000" stop-opacity="0" id="stop4269" offset="1"/>
  </linearGradient>
  <linearGradient id="linearGradient4161">
   <stop stop-color="#777777" id="stop4163" offset="0"/>
   <stop stop-color="#d3d3d3" id="stop4167" offset="0.5"/>
   <stop stop-color="#9c9c9c" id="stop4165" offset="1"/>
  </linearGradient>
  <linearGradient id="linearGradient4011" y2="0.180061" x2="0.636631" y1="0.546467" x1="0.549569">
   <stop stop-color="#a38738" stop-opacity="0.28814" id="stop4015" offset="0"/>
   <stop stop-color="#a38738" stop-opacity="0" id="stop4017" offset="1"/>
  </linearGradient>
  <linearGradient id="linearGradient4159" y2="0.164138" xlink:href="#linearGradient4161" x2="0.939634" y1="1.157402" x1="-0.090517"/>
  <linearGradient id="linearGradient4175" y2="0.499979" x2="1.033535" y1="0.499979" x1="-0.033638">
   <stop stop-color="#fff4cd" id="stop4327" offset="0"/>
   <stop stop-color="#c9bfa1" id="stop4331" offset="0.5"/>
   <stop stop-color="#fff4cd" id="stop4329" offset="1"/>
  </linearGradient>
  <radialGradient id="radialGradient4197" gradientUnits="userSpaceOnUse" cy="545.96997" cx="340.29001" gradientTransform="matrix(0.74489,-1.0095,3.2408,2.392,-1574.8,-355.43)" r="41.264999">
   <stop stop-color="#b89839" id="stop4060" offset="0"/>
   <stop stop-color="#b89839" stop-opacity="0" id="stop4062" offset="1"/>
  </radialGradient>
  <radialGradient id="radialGradient4263" xlink:href="#linearGradient4265" gradientUnits="userSpaceOnUse" cy="406.62" cx="520.84003" gradientTransform="matrix(0.12394,0.62183,-1.0573,0.21078,1035.7,23.634)" r="33.098"/>
  <radialGradient id="radialGradient4277" gradientUnits="userSpaceOnUse" cy="403.20999" cx="530.92999" gradientTransform="matrix(-1.8903,-0.82185,0.86407,-1.9879,1347.3,1667.3)" r="6.2395">
   <stop stop-color="#5cb700" id="stop4281" offset="0"/>
   <stop stop-color="#5a941f" id="stop4285" offset="0.5"/>
   <stop stop-color="#2a5300" id="stop4283" offset="1"/>
  </radialGradient>
  <linearGradient id="linearGradient4301" y2="0.861281" xlink:href="#linearGradient4303" x2="0.719765" y1="0.394669" x1="0.433051"/>
  <linearGradient id="linearGradient4317" y2="0.364491" x2="0.724766" y1="0.82105" x1="0.387762">
   <stop stop-color="#ffe743" id="stop4321" offset="0"/>
   <stop stop-color="#ffef83" id="stop4323" offset="1"/>
  </linearGradient>
  <linearGradient id="linearGradient4584" y2="0.224968" xlink:href="#linearGradient4586" x2="0.426255" y1="0.557096" x1="0.476608"/>
  <linearGradient id="linearGradient4598" y2="0.082001" xlink:href="#linearGradient4586" x2="0.720428" y1="0.478053" x1="0.732653"/>
  <radialGradient id="radialGradient3991" gradientUnits="userSpaceOnUse" cy="548.14001" cx="288.51999" gradientTransform="matrix(-1.5631,-1.0538,0.92627,-1.3743,387.19,1618.2)" r="56.908001">
   <stop stop-color="#ffeb65" id="stop3981" offset="0"/>
   <stop stop-color="#ffeb66" id="stop3983" offset="0.37731"/>
   <stop stop-color="#ffeb65" id="stop3985" offset="0.57022"/>
   <stop stop-color="#ffeb66" id="stop3987" offset="0.78427"/>
   <stop stop-color="#f3da68" id="stop3989" offset="1"/>
  </radialGradient>
  <linearGradient id="linearGradient3999" y2="0.615401" x2="0.567469" y1="1.077057" x1="0.601068">
   <stop stop-color="#dabf4f" stop-opacity="0.53714" id="stop3995" offset="0"/>
   <stop stop-color="#ffef83" id="stop3997" offset="1"/>
  </linearGradient>
  <radialGradient id="radialGradient4007" gradientUnits="userSpaceOnUse" cy="405.57999" cx="514.71002" gradientTransform="matrix(0.20246,1.0951,-1.3138,0.24296,1113.4,-231.61)" r="46.951">
   <stop stop-color="#c4aa37" id="stop4003" offset="0"/>
   <stop stop-color="#ffef7f" id="stop4005" offset="1"/>
  </radialGradient>
  <linearGradient id="SVGID_215_" x1="Infinity" y1="Infinity" x2="Infinity" y2="Infinity">
   <stop stop-color="#552F7F" offset="0" id="stop30291"/>
   <stop stop-color="#FFDB00" offset="1" id="stop30293"/>
  </linearGradient>
  <linearGradient id="SVGID_236_" x1="Infinity" y1="Infinity" x2="Infinity" y2="Infinity">
   <stop stop-color="#00AD8E" offset="0.0056" id="stop30492"/>
   <stop stop-color="#DA2128" offset="0.5" id="stop30494"/>
   <stop stop-color="#F26922" offset="1" id="stop30496"/>
  </linearGradient>
  <linearGradient id="SVGID_239_" x1="Infinity" y1="Infinity" x2="Infinity" y2="Infinity">
   <stop stop-color="#FFF166" offset="0" id="stop30527"/>
   <stop stop-color="#F0E660" offset="0.0782" id="stop30529"/>
   <stop stop-color="#E5DD5B" offset="0.1758" id="stop30531"/>
   <stop stop-color="#E1DA59" offset="0.28" id="stop30533"/>
   <stop stop-color="#24B34B" offset="0.67" id="stop30535"/>
   <stop stop-color="#21777E" offset="0.89" id="stop30537"/>
   <stop stop-color="#2E3192" offset="1" id="stop30539"/>
  </linearGradient>
  <linearGradient id="SVGID_252_" x1="Infinity" y1="Infinity" x2="Infinity" y2="Infinity">
   <stop stop-color="#F9D837" offset="0" id="stop30684"/>
   <stop stop-color="#552F7F" offset="0.5337" id="stop30686"/>
   <stop stop-color="#F26522" offset="1" id="stop30688"/>
  </linearGradient>
  <linearGradient id="SVGID_271_" x1="Infinity" y1="Infinity" x2="Infinity" y2="Infinity">
   <stop stop-color="#7C00AB" offset="0.05" id="stop30939"/>
   <stop stop-color="#BD9C26" offset="0.5" id="stop30941"/>
   <stop stop-color="#63F222" offset="1" id="stop30943"/>
  </linearGradient>
  <linearGradient id="SVGID_311_" x1="Infinity" y1="Infinity" x2="Infinity" y2="Infinity">
   <stop stop-color="#FFF33B" offset="0" id="stop31379"/>
   <stop stop-color="#EBE054" offset="0.0645" id="stop31381"/>
   <stop stop-color="#DDD267" offset="0.1334" id="stop31383"/>
   <stop stop-color="#D4CA72" offset="0.2044" id="stop31385"/>
   <stop stop-color="#D1C776" offset="0.28" id="stop31387"/>
   <stop stop-color="#9FA391" offset="0.67" id="stop31389"/>
   <stop stop-color="#6A7FA4" offset="0.89" id="stop31391"/>
   <stop stop-color="#3367B1" offset="1" id="stop31393"/>
  </linearGradient>
  <linearGradient id="SVGID_314_" x1="Infinity" y1="Infinity" x2="Infinity" y2="Infinity">
   <stop stop-color="#A6CE39" offset="0.05" id="stop31416"/>
   <stop stop-color="#552F7F" offset="0.5337" id="stop31418"/>
   <stop stop-color="#DA2128" offset="1" id="stop31420"/>
  </linearGradient>
  <linearGradient id="SVGID_318_" x1="Infinity" y1="Infinity" x2="Infinity" y2="Infinity">
   <stop stop-color="#DA2128" offset="0" id="stop31448"/>
   <stop stop-color="#00A84F" offset="1" id="stop31450"/>
  </linearGradient>
  <linearGradient id="SVGID_329_" x1="Infinity" y1="Infinity" x2="Infinity" y2="Infinity">
   <stop stop-color="#A90093" offset="0" id="stop31551"/>
   <stop stop-color="#B90046" offset="0.5" id="stop31553"/>
   <stop stop-color="#7D00AA" offset="1" id="stop31555"/>
  </linearGradient>
  <linearGradient id="SVGID_354_" x1="Infinity" y1="Infinity" x2="Infinity" y2="Infinity">
   <stop stop-color="#00A995" offset="0" id="stop31824"/>
   <stop stop-color="#3C3795" offset="0" id="stop31826"/>
   <stop stop-color="#A53594" offset="0.5056" id="stop31828"/>
   <stop stop-color="#DA2128" offset="1" id="stop31830"/>
  </linearGradient>
  <linearGradient id="SVGID_373_" x1="Infinity" y1="Infinity" x2="Infinity" y2="Infinity">
   <stop stop-color="#3BA2FF" offset="0" id="stop32001"/>
   <stop stop-color="#46B0E9" offset="0.0266" id="stop32003"/>
   <stop stop-color="#58C5C7" offset="0.0748" id="stop32005"/>
   <stop stop-color="#66D5AC" offset="0.124" id="stop32007"/>
   <stop stop-color="#6FE199" offset="0.174" id="stop32009"/>
   <stop stop-color="#75E88E" offset="0.2253" id="stop32011"/>
   <stop stop-color="#77EA8A" offset="0.28" id="stop32013"/>
   <stop stop-color="#CBDA87" offset="0.67" id="stop32015"/>
   <stop stop-color="#CDC16C" offset="0.89" id="stop32017"/>
   <stop stop-color="#BE9F2F" offset="1" id="stop32019"/>
  </linearGradient>
  <linearGradient id="SVGID_379_" x1="Infinity" y1="Infinity" x2="Infinity" y2="Infinity">
   <stop stop-color="#3948CE" offset="0.05" id="stop32063"/>
   <stop stop-color="#7F440D" offset="0.5337" id="stop32065"/>
   <stop stop-color="#DAD521" offset="1" id="stop32067"/>
  </linearGradient>
  <linearGradient id="SVGID_393_" x1="Infinity" y1="Infinity" x2="Infinity" y2="Infinity">
   <stop stop-color="#A02632" offset="0" id="stop32207"/>
   <stop stop-color="#1FF246" offset="1" id="stop32209"/>
  </linearGradient>
  <linearGradient id="SVGID_403_" x1="Infinity" y1="Infinity" x2="Infinity" y2="Infinity">
   <stop stop-color="#1FF626" offset="0" id="stop32329"/>
   <stop stop-color="#C80054" offset="0.4888" id="stop32331"/>
   <stop stop-color="#75F222" offset="0.9944" id="stop32333"/>
  </linearGradient>
  <linearGradient id="SVGID_408_" x1="Infinity" y1="Infinity" x2="Infinity" y2="Infinity">
   <stop stop-color="#F68B1F" offset="0" id="stop32386"/>
   <stop stop-color="#0080C8" offset="0.4888" id="stop32388"/>
   <stop stop-color="#F26122" offset="0.9944" id="stop32390"/>
  </linearGradient>
  <linearGradient id="SVGID_429_" x1="Infinity" y1="Infinity" x2="Infinity" y2="Infinity">
   <stop stop-color="#DAD521" offset="0" id="stop32607"/>
   <stop stop-color="#7C00A8" offset="1" id="stop32609"/>
  </linearGradient>
  <linearGradient id="SVGID_443_" x1="Infinity" y1="Infinity" x2="Infinity" y2="Infinity">
   <stop stop-color="#37E9F9" offset="0" id="stop32735"/>
   <stop stop-color="#7F440D" offset="0.5337" id="stop32737"/>
   <stop stop-color="#6CF222" offset="1" id="stop32739"/>
  </linearGradient>
  <linearGradient id="SVGID_446_" x1="Infinity" y1="Infinity" x2="Infinity" y2="Infinity">
   <stop stop-color="#A02632" offset="0" id="stop32772"/>
   <stop stop-color="#1FF246" offset="1" id="stop32774"/>
  </linearGradient>
  <linearGradient id="SVGID_449_" x1="Infinity" y1="Infinity" x2="Infinity" y2="Infinity">
   <stop stop-color="#FFF33B" offset="0" id="stop32793"/>
   <stop stop-color="#FEE72E" offset="0.0401" id="stop32795"/>
   <stop stop-color="#FED51B" offset="0.1171" id="stop32797"/>
   <stop stop-color="#FDCA10" offset="0.1964" id="stop32799"/>
   <stop stop-color="#FDC70C" offset="0.2809" id="stop32801"/>
   <stop stop-color="#F3903F" offset="0.6685" id="stop32803"/>
   <stop stop-color="#ED683C" offset="0.8876" id="stop32805"/>
   <stop stop-color="#E93E3A" offset="1" id="stop32807"/>
  </linearGradient>
 </defs>
 <metadata id="metadata30138">image/svg+xmlOpenclipart2011-01-01T03:27:34Just a profile of me on a coin.https://openclipart.org/detail/102871/me-as-a-coin-by-simanekSimanekcoin</metadata>
 <g>
  <title>Layer 1</title>
  <g display="none" id="layer1" transform="translate(-47.92509,-103.25846)">
   <rect fill="#8c8c8c" id="rect4622" height="940.23999" width="940.25" y="82.241997" x="29.127001"/>
  </g>
  <g display="none" id="layer2" transform="translate(-47.92509,-103.25846)">
   <path fill="url(#linearGradient4317)" id="path3139" d="m497.5,216.960007c-52.398987,-0.395569 -115.029999,22.291 -143.259979,33.445999c-49.057007,19.386993 -72.421021,29.862 -97.403015,59.942993c-34.819,41.926025 -40.287994,82.565002 -38.339005,148.200012c4.277908,83.877991 53.290024,125.589966 86.246017,183.219971c12.345978,22.095032 23.757996,54.871033 27.006989,77.61499c3.248901,22.745056 -0.640839,27.957031 -14.936005,40.304016c-14.295135,12.346985 -36.384979,0.651672 -35.084991,16.89801c17.181,73.213013 86.041992,100.890015 124.779999,109.820007c62.175995,14.333008 147.47998,4.547913 147.47998,4.547913c0,0 -25.695007,3.571106 0,-0.548889c16.713013,-2.67981 45.301025,-15.35498 64.173035,-28.89502c27.109985,-19.450989 45.940979,-48.323975 47.119995,-73.080017c0.730286,-15.337952 0.114746,-24.339966 -2.430542,-31.914001c2.421936,-0.616699 4.908936,-1.276794 7.448303,-2.038696c12.994995,-3.899048 57.825989,-23.393982 65.623047,-25.993958c7.79718,-2.599426 37.026001,-7.130493 50.020996,-29.875c12.994995,-22.744995 3.915283,-37.697998 0.666382,-46.145996c-3.248779,-8.447998 -12.359985,-12.987 -9.761169,-19.485046c2.599121,-6.498474 6.495605,-7.794067 9.094666,-18.191956c2.599121,-10.397949 -0.615417,-22.772034 -3.214478,-28.619995c-2.599121,-5.848633 -9.11731,-1.948547 -8.467468,-4.547913c0.64978,-2.599426 6.489746,-5.846619 10.388,-9.095825c3.89856,-3.249207 10.399963,-12.32196 7.801086,-14.270996c-2.599121,-1.949463 -6.495728,-12.359009 -9.094788,-23.406006c-2.598999,-11.046997 -1.927795,-18.190979 3.920166,-22.73999c5.8479,-4.548889 16.22699,-7.145294 25.324036,-13.643982c9.096802,-6.498505 6.492798,-22.742004 -3.253723,-35.090027c-9.746521,-12.346985 -26.648987,-20.15097 -37.044983,-24.699982c-10.395996,-4.548889 -27.936035,-16.923004 -44.179993,-28.619995c-16.244019,-11.697021 -11.671021,-13.611023 -9.722046,-33.756012c1.949341,-20.144989 -7.020813,-26.678009 -14.73999,-36.971008c-7.718994,-10.292999 -15.424011,-23.135986 -39.867981,-59.161987c-23.679993,-34.899994 -92.072021,-62.639999 -166.290009,-63.199997l-0.002533,-0.001617z"/>
   <path fill="url(#linearGradient4584)" id="path3146" d="m198.839996,388.540009l-8.104889,-54.039001l17.560989,24.317993l2.701599,-36.47699c0,0 2.701599,28.371002 6.754105,20.265015c4.052505,-8.105927 20.261993,-48.63501 55.384003,-82.410034c35.120972,-33.774994 48.630005,-33.774994 48.630005,-33.774994l-16.210022,21.615997l71.594025,-37.827988c0,0 -12.157013,21.615997 -5.40332,14.860992c6.75412,-6.754898 79.697998,-41.880005 79.697998,-41.880005l-5.40329,10.807999l63.489014,-17.562988l-6.75412,12.158997c0,0 33.771027,-6.754898 60.787018,-5.4039c27.015991,1.350998 62.138,17.563004 62.138,17.563004l-16.210022,4.052994c0,0 27.015991,16.212006 29.718018,25.669006c2.701599,9.456894 0,16.21199 0,16.21199l-14.859009,-13.509995l6.754089,20.264999c0,0 -51.330994,-18.914001 -78.347961,-18.914001l-37.822998,0l44.576965,10.807999c0,0 -55.384003,-2.701996 -74.294983,0c-18.912018,2.701996 -20.262024,5.4039 -20.262024,5.4039l35.121002,9.456909l-27.015991,0l21.613007,9.456879c0,0 -25.666016,1.351013 -35.121002,4.052917c-9.455688,2.701996 35.121002,16.212006 35.121002,16.212006l-1.3508,24.317993c0,0 2.701599,14.860992 14.859009,27.019989c12.157379,12.158997 39.173981,28.371002 33.770966,55.390015c-5.403259,27.019989 -14.859009,45.932983 -17.560974,71.60199c-2.701599,25.669006 20.261963,52.687988 20.261963,52.687988c0,0 -31.06897,18.914001 -48.629974,17.562988c-17.561005,-1.350952 -32.419983,-2.701965 -39.174011,-21.615967c-6.754089,-18.914001 -14.858978,-29.722015 -31.069,-27.02002c-16.209991,2.702026 -40.524994,27.02002 -59.436005,43.231018c-18.91098,16.211975 -25.665985,44.58197 -25.665985,68.900024c0,24.317993 2.701599,39.178955 5.40329,56.740967c2.701599,17.562988 -2.701599,29.721985 -16.209991,35.125977c-13.507996,5.403931 -14.859009,6.754944 -32.420013,-17.562988c-17.560974,-24.317871 -22.963989,-37.828003 -39.173981,-63.495972c-16.209991,-25.669006 -37.823013,-48.63501 -45.928009,-91.867004c-8.104904,-43.231018 -9.455795,-51.337006 -9.455795,-51.337006l-8.104904,10.808014l6.754105,-25.669006l-14.859009,-12.158997l13.508011,-22.96701l-18.912003,-40.529999l17.561905,9.457306z"/>
   <path fill="url(#linearGradient3999)" id="path3154" d="m721.890015,405.109985c2.111877,4.679413 5.292175,8.311707 5.292175,8.311707c0,0 18.309998,30.552002 21.36499,40.734985c3.054749,10.183014 -6.08374,22.903015 -13.719971,29.522003c-7.636719,6.619202 -11.713989,21.885986 -4.077026,31.050995c7.636597,9.1651 20.356018,10.189026 30.538025,5.606506c10.182007,-4.58252 9.692383,-12.197998 19.366028,-17.289978c9.673096,-5.091736 -2.548096,7.100891 -2.548096,11.682983c0,3.941589 -1.124939,9.789978 4.390564,15.877991c-1.459778,-8.676392 -0.279968,-14.567017 4.782593,-18.505005c5.8479,-4.548889 16.22699,-7.145294 25.324036,-13.643982c9.096802,-6.498505 6.492798,-22.742004 -3.253723,-35.089996c-9.746521,-12.347015 -26.648987,-20.151001 -37.044983,-24.700012c-10.395996,-4.548889 -27.936035,-16.923004 -44.179993,-28.619995c-2.587402,-1.86322 -4.607239,-3.460022 -6.233032,-4.940002l-0.001587,0.001801z"/>
   <path opacity="0.82178" fill="#ffc21e" id="path3194" d="m787.280029,560.130005c-1.391785,0.029419 -2.629395,0.157898 -3.488892,0.470459c-3.437988,1.250427 -4.061096,7.199219 -10.937012,14.388977c-6.876099,7.189514 -14.322998,12.901001 -19.679016,19.368042c-2.028076,2.448669 -7.027161,9.062561 -4.390564,11.565979c2.500366,0.312622 -2.189819,0.310486 22.502014,-0.627258c7.758484,-0.294678 12.518982,-1.663818 15.405945,-3.41095c-0.615967,-6.362183 -2.401794,-12.21698 -3.95929,-15.721985c-2.59906,-5.848572 -9.11731,-1.948486 -8.467468,-4.547913c0.64978,-2.599365 6.489807,-5.846558 10.388,-9.095764c3.040161,-2.533813 7.654663,-8.598694 8.310669,-12.075989c-1.789001,-0.185364 -3.793579,-0.353455 -5.684204,-0.31366l-0.000183,0.000061z"/>
   <path opacity="0.51485" fill="url(#radialGradient4007)" id="path3139-7" d="m718.119995,378.920013l-17.953979,2.744385l-50.882996,36.070007l-7.997131,-0.744904c0,0 -25.075989,12.536987 -19.757996,36.854004c5.318726,24.316986 11.801025,23.562988 21.677979,23.562988c9.877625,0 20.127014,-1.522095 29.244019,6.076996c9.117676,7.598999 7.957886,13.291016 7.957886,18.231018c0,4.939392 10.643005,3.053986 18.621033,-5.684906c7.977966,-8.738892 14.836975,-26.230011 17.875977,-36.109009c3.039185,-9.878693 -0.385681,-27.740997 2.273682,-34.579987c2.659302,-6.839111 8.745422,-9.867798 12.544006,-9.487915c1.228638,0.122833 3.878235,0.822998 6.860229,1.685913c-3.492432,-2.468292 -7.010437,-4.99939 -10.467041,-7.488403c-15.496948,-11.158997 -12.039001,-13.45401 -9.996399,-31.130005l0.000732,-0.000183z"/>
   <path opacity="0.89109" fill="url(#radialGradient4263)" id="path4205" d="m644.059998,447.299988c2.523376,-2.618591 7.803101,-7.583801 15.14801,-13.777008c7.059387,-5.953094 19.971008,-12.303986 23.612,-14.02298c7.049194,-3.327606 9.766418,-4.793396 15.464966,-5.933197c5.698608,-1.139801 13.677002,-12.538025 13.677002,-12.538025c0,0 1.899536,-2.279694 2.279419,1.139801c0.379883,3.419617 -4.938782,15.578003 -4.558899,26.97702c0.379944,11.398987 1.139709,15.578003 1.899475,19.377991c0.759827,3.7995 -2.279358,12.15799 -4.178955,4.559387c-1.899536,-7.598999 0.759766,-7.978973 -3.799133,-8.738892c-4.558899,-0.759918 -12.536987,5.69931 -20.13501,7.979004c-7.598083,2.279694 -18.234985,3.419586 -27.732971,4.559387c-9.49762,1.139801 -10.257019,5.319305 -16.335999,6.839111c-6.078491,1.519806 -9.49762,-1.139893 -4.558899,-6.079193c4.938782,-4.939392 4.484802,-5.427612 9.219604,-10.341003l-0.00061,-0.001404z"/>
   <path fill="url(#linearGradient4301)" stroke="#805d00" stroke-width="1px" stroke-opacity="0.66286" id="path3204" d="m652.830017,443.059998c5.706299,-5.523407 13.057007,-11.427002 23.528992,-17.100983c10.471985,-5.673126 6.126038,-3.998505 10.031982,-5.660919c3.212036,-1.367004 9.136658,-1.945496 9.986145,8.140808c0.626526,7.438385 -5.042114,14.048004 -12.772034,15.619995c-7.269104,1.477814 -13.947998,1.780304 -24.630981,3.421906c-10.906006,1.198303 -12.836975,2.056396 -6.144897,-4.421112l0.000793,0.000305z"/>
   <path fill="url(#linearGradient4598)" id="path3982" d="m693.349976,399.410004c0,0 15.239014,-1.385498 18.932983,-4.156494c3.694214,-2.770996 6.926697,-7.389313 7.85022,-10.622009c0.923584,-3.232788 -0.461792,-15.240997 -5.07959,-17.549988c-4.617798,-2.309204 -11.083008,-4.618317 -14.777039,-4.618317c-3.694153,0 -0.461792,3.694702 -0.461792,3.694702c0,0 -5.54126,0.461823 -12.005981,1.84729c-6.464905,1.385498 -19.39502,12.470032 -17.085999,13.393005c2.308899,0.923676 0.461792,5.541992 0.461792,5.541992c0,0 -0.923584,4.156525 -5.07959,6.465729c-4.156067,2.309174 -10.158997,10.621979 -12.468018,12.007996c-2.308899,1.385498 -7.342712,7.473694 -11.544006,9.698486c-7.85022,4.156494 -7.388489,10.622009 -4.156006,6.92749c3.232483,-3.69458 -0.923523,4.156525 -3.232361,7.389404c-2.30896,3.232819 3.694153,0.923676 12.467957,-6.465698c8.773804,-7.389282 28.16803,-14.778992 34.632996,-18.472992c6.464905,-3.694702 11.544006,-5.0802 11.544006,-5.0802l0.000427,-0.000397z"/>
   <path opacity="0.4604" fill="url(#linearGradient4011)" id="path3139-1" d="m519.450012,508.420013c-19.976013,0.634521 -51.354004,14.152985 -51.354004,14.152985c0,0 45.362,40.322021 42.338013,80.647034c-3.024017,40.325012 -18.150024,68.583008 -18.150024,90.761963c0,22.179016 0.991516,77.617004 9.055511,90.723022c8.063995,13.106018 20.517975,18.47998 44.561981,21.507996c25.231018,3.178223 -4.499878,56.447998 12.686035,54.28302c8.2547,-8.888306 29.485962,-25.368042 44.096985,-48.478027c14.611023,-23.110962 37.520996,-46.041016 56.09198,-52.95697c4.636108,-1.72644 8.981812,-3.822693 11.520996,-4.584595c12.994995,-3.899109 57.82605,-23.394043 65.623047,-25.994019c7.79718,-2.599426 37.026001,-7.130493 50.020996,-29.875c6.357056,-11.125977 7.409607,-20.367004 6.468201,-27.914978c-4.104919,4.814148 -8.700134,8.532898 -12.858032,8.154846c-11.088013,-1.008057 -19.130005,-13.105957 -19.130005,-21.170959c0,-6.989136 10.56604,-16.252991 19.954041,-14.663025c-2.770325,-3.405701 -4.971619,-6.427612 -3.528137,-10.036987c0.701172,-1.753113 1.513,-3.11438 2.352112,-4.391113c-5.031311,-2.080994 -12.63501,-3.646973 -18.776978,1.881897c-10.080017,9.07312 -7.078979,19.132996 -16.151001,26.190002c-9.072021,7.056946 -13.082031,-14.119995 -12.074036,-25.209961c1.008057,-11.08905 1.987854,-18.113037 -6.076172,-11.05603c-8.064026,7.056885 -23.151001,33.27002 -25.166992,49.400024c-2.015991,16.130005 -24.210999,27.213989 -54.450989,17.132996c-30.23999,-10.080994 -64.502991,-48.387024 -69.54303,-73.590027c-5.039978,-25.203003 -16.145996,-34.312012 -26.226013,-52.458008c-10.079956,-18.145996 -5.046204,-38.309998 -18.149963,-49.399963c-2.866516,-2.425812 -7.539185,-3.235809 -13.132019,-3.058105l-0.002502,0.001984z"/>
   <g id="g4183" transform="matrix(1.2544,0,0,1.2546,20.535,-73.874)">
    <path fill="url(#linearGradient4175)" id="path4127" d="m565.200012,362.380005c0,0 5.08728,-2.614197 6.904175,-0.43573c1.816895,2.178497 4.657837,15.835022 4.294434,38.491028c-0.363403,22.656982 -3.204285,41.243011 -5.02124,42.984985c-1.816895,1.742798 -3.270386,6.099915 -5.450684,-1.742798c-2.180298,-7.842682 -4.723877,-31.371002 -4.360596,-46.184998c0.363403,-14.813995 3.633789,-33.113983 3.633789,-33.113983l0.000122,0.001495z"/>
    <path fill="url(#linearGradient4159)" id="path4125" d="m378.040009,422.480011c0,0 69.670013,-19.416016 91.94101,-25.127014c22.272003,-5.710602 79.377991,-18.273987 88.515015,-21.128998c9.136963,-2.855286 8.565979,-0.571045 10.278992,3.426422c1.713196,3.997375 1.14209,4.568481 -11.421021,6.852783c-12.56311,2.284302 -181.029999,40.546021 -181.029999,40.546021l1.716003,-4.569214z"/>
    <path fill="#000000" id="path4123" d="m269.540009,521.840027c-9.708099,-0.571045 -4.568512,-6.852783 0.571075,-15.98999c5.139587,-9.136993 18.845001,-32.550995 27.981995,-47.39801c9.136993,-14.847992 19.415985,-24.556 39.402985,-29.695007c19.987,-5.139587 25.697998,-6.281677 33.122009,-7.423798c7.423798,-1.14209 5.139587,-1.713196 10.850006,-2.855286c5.710602,-1.14212 6.281677,7.423798 -2.855316,10.278992c-9.136993,2.855316 -37.118988,5.710602 -47.968994,10.278992c-10.850006,4.568512 -45.113983,63.388 -50.253998,71.382996c-5.139587,7.994904 -10.850006,11.42099 -10.850006,11.42099l0.000244,0.000122z"/>
   </g>
   <path fill="url(#radialGradient3991)" id="path3148" d="m455.5,562.820007c-10.807007,-27.02002 -17.561005,-33.775024 -20.261993,-44.58197c-2.701599,-10.808014 -9.455811,-10.49704 -20.261993,-10.49704c-10.807007,0 -36.725006,-18.40799 -61.040009,-0.845154c-24.315002,17.562836 -26.764008,49.170013 -9.202911,78.891998c17.561096,29.721985 38.585022,54.904968 65.77301,63.11499c13.313995,4.020203 32.673004,11.973999 44.070984,9.961914c8.730927,-1.541626 16.374023,-9.270996 16.324005,-18.723022c-0.099487,-18.914001 -0.203156,-30.708984 5.200104,-37.463989l-20.601196,-39.857727z"/>
   <path opacity="0.67327" fill="url(#radialGradient4197)" id="path3152" d="m412.369995,539.099976c0,0 -6.949402,14.434998 -14.968018,22.989014c-8.018494,8.554077 -12.829987,18.711975 -8.018494,31.542969c4.811096,12.830994 15.502014,10.15802 21.916992,8.019409c6.414825,-2.138489 18.710022,3.207825 26.728027,3.742432c8.018494,0.534607 17.640991,1.069275 15.501984,-9.623291c-2.138306,-10.693054 -9.622192,-6.415649 -17.640991,-8.554138c-8.018494,-2.138489 -6.949402,-22.453979 -10.157013,-36.35498c-3.207397,-13.900024 -13.363983,-11.762024 -13.363983,-11.762024l0.001495,0.00061zm-11.220001,-19.25c-11.76001,-4.276978 -41.39798,-3.155518 -47.041992,14.434998c-6.461304,20.138977 -5.345703,34.750977 8.553101,59.343994c14.953003,23.004028 29.68399,42.187012 56.128998,36.889038c8.553009,-1.603943 18.709991,-9.623352 2.138306,-16.039001c-18.041992,3.672546 -39.865997,8.029297 -51.852997,-34.751038c-7.618011,-27.187012 -1.857697,-56.69696 18.174988,-45.977966c4.276489,16.039001 4.276489,17.107971 9.622192,12.295959c10.420013,-10.110962 15.28299,-21.838989 4.27652,-26.19696l0.000885,0.000977z"/>
   <path opacity="0.67327" fill="url(#radialGradient4277)" id="path4064" d="m689.969971,419.540009c-1.295898,-0.028198 -2.553223,0.338318 -3.557007,0.765533c-0.630432,0.26828 -0.828125,0.40097 -1.12561,0.540344c-2.424011,3.504517 -3.510193,6.485016 -3.737061,12.067993c-0.192932,4.748016 2.585388,7.591797 6.078247,9.81662c5.582031,-2.675812 9.246643,-8.198212 8.734802,-14.275024c-0.584045,-6.934387 -3.542603,-8.853882 -6.393494,-8.915985l0.000122,0.000519z"/>
   <text font-size="114.629997px" font-family="'Bitstream Vera Sans'" fill="#dddddd" id="text3900-7" xml:space="preserve" transform="matrix(0.89807,0.43985,-0.43985,0.89807,301.87,-166.48)">
    <textPath id="textPath3902-4" xlink:href="#path4694-3">
     <tspan font-weight="bold" font-size="72px" font-family="'Accanthis ADF Std'" text-anchor="middle" fill="#dddddd" id="tspan3904-5" y="-39.153229" x="273.1731">THIS IS ME ON A COIN!</tspan>
    </textPath>
   </text>
  </g>
  <polygon fill="url(#SVGID_215_)" id="polygon30296" transform="matrix(0.32849137,-0.16092626,0.16092626,0.32849137,172.69874,410.72996)"/>
  <polygon fill="url(#SVGID_236_)" id="polygon30499" transform="matrix(0.32849137,-0.16092626,0.16092626,0.32849137,172.69874,410.72996)"/>
  <polygon fill="url(#SVGID_239_)" id="polygon30542" transform="matrix(0.32849137,-0.16092626,0.16092626,0.32849137,172.69874,410.72996)"/>
  <polygon fill="url(#SVGID_252_)" id="polygon30691" transform="matrix(0.32849137,-0.16092626,0.16092626,0.32849137,172.69874,410.72996)"/>
  <polygon fill="url(#SVGID_271_)" id="polygon30946" transform="matrix(0.32849137,-0.16092626,0.16092626,0.32849137,172.69874,410.72996)"/>
  <polygon fill="url(#SVGID_311_)" id="polygon31396" transform="matrix(0.32849137,-0.16092626,0.16092626,0.32849137,172.69874,410.72996)"/>
  <polygon fill="url(#SVGID_314_)" id="polygon31423" transform="matrix(0.32849137,-0.16092626,0.16092626,0.32849137,172.69874,410.72996)"/>
  <polygon fill="url(#SVGID_318_)" id="polygon31453" transform="matrix(0.32849137,-0.16092626,0.16092626,0.32849137,172.69874,410.72996)"/>
  <polygon fill="url(#SVGID_329_)" id="polygon31558" transform="matrix(0.32849137,-0.16092626,0.16092626,0.32849137,172.69874,410.72996)"/>
  <polygon fill="url(#SVGID_354_)" id="polygon31833" transform="matrix(0.32849137,-0.16092626,0.16092626,0.32849137,172.69874,410.72996)"/>
  <polygon fill="url(#SVGID_373_)" id="polygon32022" transform="matrix(0.32849137,-0.16092626,0.16092626,0.32849137,172.69874,410.72996)"/>
  <polygon fill="url(#SVGID_379_)" id="polygon32070" transform="matrix(0.32849137,-0.16092626,0.16092626,0.32849137,172.69874,410.72996)"/>
  <polygon fill="url(#SVGID_393_)" id="polygon32212" transform="matrix(0.32849137,-0.16092626,0.16092626,0.32849137,172.69874,410.72996)"/>
  <polygon fill="url(#SVGID_403_)" id="polygon32336" transform="matrix(0.32849137,-0.16092626,0.16092626,0.32849137,172.69874,410.72996)"/>
  <polygon fill="url(#SVGID_408_)" id="polygon32393" transform="matrix(0.32849137,-0.16092626,0.16092626,0.32849137,172.69874,410.72996)"/>
  <polygon fill="url(#SVGID_429_)" id="polygon32612" transform="matrix(0.32849137,-0.16092626,0.16092626,0.32849137,172.69874,410.72996)"/>
  <polygon fill="url(#SVGID_443_)" id="polygon32742" transform="matrix(0.32849137,-0.16092626,0.16092626,0.32849137,172.69874,410.72996)"/>
  <polygon fill="url(#SVGID_446_)" id="polygon32777" transform="matrix(0.32849137,-0.16092626,0.16092626,0.32849137,172.69874,410.72996)"/>
  <polygon fill="url(#SVGID_449_)" id="polygon32810" transform="matrix(0.32849137,-0.16092626,0.16092626,0.32849137,172.69874,410.72996)"/>
  <g id="g53762" transform="matrix(-1,0,0,1,937.09135,-12.617307)">
   <path fill="#4c5675" fill-rule="nonzero" stroke-width="2.451431" id="path13696" d="m433.950439,933.400879c-27.750946,-2.928223 -37.284698,-4.611328 -40.589966,-7.166199c-2.948822,-2.279114 -286.806747,-721.218384 -286.806747,-726.407684c0,-4.361755 33.238983,-42.958572 53.545685,-62.176788c49.837219,-47.165848 105.753738,-80.587414 171.324295,-102.40136c50.124756,-16.675453 89.542297,-22.9421 143.730316,-22.850405l34.652069,0.058637l152.051025,387.297772l152.050903,387.29776l-12.588318,12.902405c-93.234497,95.561035 -235.760437,147.333191 -367.369263,133.445862z"/>
   <path fill="#586a6e" fill-rule="nonzero" stroke-width="1.733423" id="path53734" d="m347.999603,916.507935c-52.456024,-15.584534 -103.400742,-41.325989 -148.788391,-75.179993c-21.997971,-16.407898 -69.691788,-63.689087 -86.126938,-85.381653c-31.445427,-41.504456 -53.727322,-82.81073 -69.828636,-129.448669c-25.946621,-75.155151 -32.702119,-151.99353 -20.064104,-228.213043c9.726263,-58.658813 33.437082,-123.103851 61.604219,-167.437866l5.29023,-8.326614l2.439163,5.837723c1.341537,3.210754 2.439156,6.070084 2.439156,6.354065c0,0.856735 46.452141,119.57251 149.512672,382.103241c118.467728,301.778137 118.047287,300.701782 118.047287,302.248657c0,1.690369 -0.569336,1.590332 -14.524658,-2.555847z"/>
   <path fill="#b37356" fill-rule="nonzero" stroke-width="2.451431" id="path13706" d="m873.91333,695.057983c-5.070496,-11.192017 -260.719055,-662.234295 -260.281921,-662.841652c0.263,-0.365458 10.071289,2.920021 21.796204,7.301067c110.732361,41.375484 201.756592,123.816174 252.89209,229.04443c16.686523,34.338318 25.093933,56.970703 33.29657,89.633179c22.105164,88.0224 18.792847,177.719299 -9.722778,263.291382c-8.910706,26.739807 -31.648193,78.436584 -34.498413,78.436584c-0.702759,0 -2.269531,-2.18927 -3.48175,-4.86499z"/>
  </g>
 </g>
</svg>